<svg width="200" height="200" viewBox="0 0 200 200" fill="none" xmlns="http://www.w3.org/2000/svg">
<path d="M100 0C72.8625 0 69.45 0.125 58.7875 0.6C48.125 1.1 40.8625 2.775 34.5 5.25C27.8262 7.76024 21.7811 11.6978 16.7875 16.7875C11.701 21.7837 7.76384 27.828 5.25 34.5C2.775 40.85 1.0875 48.125 0.6 58.75C0.125 69.4375 0 72.8375 0 100.013C0 127.163 0.125 130.563 0.6 141.225C1.1 151.875 2.775 159.137 5.25 165.5C7.8125 172.075 11.225 177.65 16.7875 183.212C22.3375 188.775 27.9125 192.2 34.4875 194.75C40.8625 197.225 48.1125 198.912 58.7625 199.4C69.4375 199.875 72.8375 200 100 200C127.163 200 130.55 199.875 141.225 199.4C151.863 198.9 159.15 197.225 165.512 194.75C172.182 192.239 178.223 188.301 183.212 183.212C188.775 177.65 192.188 172.075 194.75 165.5C197.212 159.137 198.9 151.875 199.4 141.225C199.875 130.563 200 127.163 200 100C200 72.8375 199.875 69.4375 199.4 58.7625C198.9 48.125 197.212 40.85 194.75 34.5C192.237 27.8278 188.299 21.7834 183.212 16.7875C178.22 11.6959 172.175 7.75807 165.5 5.25C159.125 2.775 151.85 1.0875 141.212 0.6C130.537 0.125 127.15 0 99.975 0H100.013H100ZM91.0375 18.025H100.013C126.713 18.025 129.875 18.1125 140.412 18.6C150.162 19.0375 155.463 20.675 158.988 22.0375C163.65 23.85 166.988 26.025 170.488 29.525C173.988 33.025 176.15 36.35 177.963 41.025C179.338 44.5375 180.962 49.8375 181.4 59.5875C181.887 70.125 181.988 73.2875 181.988 99.975C181.988 126.662 181.887 129.837 181.4 140.375C180.962 150.125 179.325 155.412 177.963 158.938C176.359 163.279 173.8 167.205 170.475 170.425C166.975 173.925 163.65 176.088 158.975 177.9C155.475 179.275 150.175 180.9 140.412 181.35C129.875 181.825 126.713 181.938 100.013 181.938C73.3125 181.938 70.1375 181.825 59.6 181.35C49.85 180.9 44.5625 179.275 41.0375 177.9C36.6937 176.299 32.7641 173.745 29.5375 170.425C26.2094 167.2 23.6465 163.271 22.0375 158.925C20.675 155.413 19.0375 150.113 18.6 140.363C18.125 129.825 18.025 126.662 18.025 99.95C18.025 73.25 18.125 70.1 18.6 59.5625C19.05 49.8125 20.675 44.5125 22.05 40.9875C23.8625 36.325 26.0375 32.9875 29.5375 29.4875C33.0375 25.9875 36.3625 23.825 41.0375 22.0125C44.5625 20.6375 49.85 19.0125 59.6 18.5625C68.825 18.1375 72.4 18.0125 91.0375 18V18.025Z" fill="white"/>
<path d="M126.444 82.5C128.491 82.5 130.262 83.2227 131.757 84.668C133.252 86.1133 134 87.8906 134 90V97.5C134 99.6094 133.252 101.387 131.757 102.832C130.262 104.277 128.491 105 126.444 105H103.778V162.5C103.778 164.531 103.03 166.289 101.535 167.773C100.039 169.258 98.2685 170 96.2222 170H88.6667C86.5417 170 84.7512 169.258 83.2951 167.773C81.8391 166.289 81.1111 164.531 81.1111 162.5V105H73.5556C71.4306 105 69.64 104.277 68.184 102.832C66.728 101.387 66 99.6094 66 97.5V90C66 87.8906 66.728 86.1133 68.184 84.668C69.64 83.2227 71.4306 82.5 73.5556 82.5H81.1111V60C81.1111 51.7188 84.0625 44.6484 89.9653 38.7891C95.8681 32.9297 102.991 30 111.333 30H126.444C128.569 30 130.36 30.7227 131.816 32.168C133.272 33.6133 134 35.3906 134 37.5V45C134 47.1094 133.272 48.8867 131.816 50.332C130.36 51.7773 128.569 52.5 126.444 52.5H111.333C109.208 52.5 107.418 53.2227 105.962 54.668C104.506 56.1133 103.778 57.8906 103.778 60V82.5H126.444Z" fill="white"/>
</svg>
