<svg width="352" height="317" viewBox="0 0 352 317" fill="none" xmlns="http://www.w3.org/2000/svg">
<path fill-rule="evenodd" clip-rule="evenodd" d="M309 317C332.748 317 352 297.748 352 274L352 43C352 19.2518 332.748 -1.68304e-06 309 -3.75918e-06L43 -2.70136e-05C19.2518 -2.90898e-05 1.07712e-05 19.2517 8.69505e-06 43L-1.14996e-05 274C-1.35757e-05 297.748 19.2517 317 43 317L309 317ZM149.462 254C154.065 254 158.479 252.169 161.734 248.91C164.988 245.65 166.816 241.23 166.816 236.62C166.816 232.011 164.988 227.59 161.734 224.33L114.747 175.778L279.643 175.778C284.246 175.778 288.661 173.947 291.916 170.687C295.171 167.427 297 163.005 297 158.395C297 153.785 295.171 149.363 291.916 146.103C288.661 142.843 284.246 141.012 279.643 141.012L114.747 141.012L161.734 92.4598C164.896 89.1813 166.645 84.7902 166.605 80.2323C166.566 75.6745 164.74 71.3145 161.522 68.0915C158.304 64.8685 153.951 63.0403 149.4 63.0007C144.849 62.961 140.464 64.7132 137.19 67.8797L59.082 146.105C55.828 149.365 54 153.786 54 158.395C54 163.004 55.828 167.425 59.082 170.685L137.19 248.91C140.445 252.169 144.859 254 149.462 254Z" fill="white"/>
</svg>
