<svg width="352" height="317" viewBox="0 0 352 317" fill="none" xmlns="http://www.w3.org/2000/svg">
<path fill-rule="evenodd" clip-rule="evenodd" d="M43 0C19.2518 0 0 19.2518 0 43V274C0 297.748 19.2517 317 43 317H309C332.748 317 352 297.748 352 274V43C352 19.2518 332.748 0 309 0H43ZM202.538 63C197.935 63 193.521 64.8307 190.266 68.0896C187.012 71.3495 185.184 75.7702 185.184 80.3797C185.184 84.9891 187.012 89.4099 190.266 92.6697L237.253 141.222H72.3574C67.7539 141.222 63.339 143.053 60.0839 146.313C56.8287 149.573 55 153.995 55 158.605C55 163.215 56.8287 167.637 60.0839 170.897C63.339 174.157 67.7539 175.988 72.3574 175.988H237.253L190.266 224.54C187.104 227.819 185.355 232.21 185.395 236.768C185.434 241.326 187.26 245.685 190.478 248.909C193.696 252.132 198.049 253.96 202.6 253.999C207.152 254.039 211.536 252.287 214.81 249.12L292.918 170.895C296.172 167.635 298 163.214 298 158.605C298 153.995 296.172 149.575 292.918 146.315L214.81 68.0896C211.555 64.8307 207.141 63 202.538 63Z" fill="white"/>
</svg>
